<svg width="80" height="80" viewBox="0 0 80 80" xmlns="http://www.w3.org/2000/svg" role="img" aria-label="ReconEasy symbol">
  <defs>
    <pattern id="reconeasy-stripes" width="6" height="6" patternUnits="userSpaceOnUse" patternTransform="rotate(125)">
      <rect width="6" height="6" fill="#16a199" />
      <rect width="3" height="6" fill="#119085" />
    </pattern>
  </defs>

  <g fill="none" fill-rule="evenodd">
    <path
      d="M20 14c0-1.657 1.343-3 3-3h27c1.657 0 3 1.343 3 3s-1.343 3-3 3H23c-1.657 0-3-1.343-3-3Zm0 12c0-1.657 1.343-3 3-3h24c1.657 0 3 1.343 3 3s-1.343 3-3 3H23c-1.657 0-3-1.343-3-3Zm13.282 14.73c-.853-1.45-.358-3.311 1.093-4.164.462-.272.988-.416 1.523-.416h9.272c1.657 0 3-1.343 3-3s-1.343-3-3-3H26.5c-1.657 0-3-1.343-3-3s1.343-3 3-3h23.772c1.657 0 3-1.343 3-3s-1.343-3-3-3H23c-1.657 0-3-1.343-3-3s1.343-3 3-3h27c6.627 0 12 5.373 12 12 0 5.25-3.366 9.724-8.054 11.373 3.51 2.63 5.801 6.824 5.801 11.585 0 7.732-6.268 14-14 14H23c-1.657 0-3-1.343-3-3s1.343-3 3-3h22c4.418 0 8-3.582 8-8 0-4.418-3.582-8-8-8H34.9c-1.074 0-2.07-.547-2.618-1.438Z"
      fill="url(#reconeasy-stripes)"
    />

    <path
      d="M42.5 45.5c1.171-1.561 3.389-1.866 4.95-.695.185.139.355.299.505.476l6.237 7.247 10.99-12.706c1.2-1.386 3.296-1.527 4.681-.327 1.386 1.2 1.527 3.296.327 4.681L55.2 63.14c-1.27 1.47-3.498 1.6-4.967.331-.153-.132-.295-.277-.422-.434l-8.135-9.463c-1.203-1.399-1.038-3.51.36-4.713.17-.146.35-.276.541-.36Z"
      fill="#ff6f61"
    />
  </g>
</svg>
